<?xml version="1.0" encoding="utf-8"?>
<!-- Generator: Adobe Illustrator 27.6.1, SVG Export Plug-In . SVG Version: 6.00 Build 0)  -->
<svg version="1.1" id="Layer_1" xmlns="http://www.w3.org/2000/svg" xmlns:xlink="http://www.w3.org/1999/xlink" x="0px" y="0px"
	 viewBox="0 0 512 512" style="enable-background:new 0 0 512 512;" xml:space="preserve">
<style type="text/css">
	.st0{fill:#4E86FF;}
</style>
<g>
	<g>
		<path class="st0" d="M497,512H15c-8.3,0-15-6.7-15-15c0-8.3,6.7-15,15-15h16.5V302H16c-4.8,0-9.3-2.3-12.2-6.2
			c-2.8-3.9-3.6-8.9-2.1-13.5l60-201C63.8,75.1,69.6,71,76,71h225V15c0-8.3,6.7-15,15-15h60c8.3,0,15,6.7,15,15v56H436
			c6.5,0,12.2,4.1,14.2,10.3l60,201c1.5,4.6,0.7,9.6-2.1,13.5c-2.8,3.9-7.3,6.2-12.2,6.2h-15.5v180H497c8.3,0,15,6.7,15,15
			C512,505.3,505.3,512,497,512z M300.9,482h149.5V302h-134c-4,0-7.9-1.6-10.7-4.5L256,246.9l-49.8,50.6c-2.8,2.9-6.7,4.5-10.7,4.5
			h-134v180h149.5V346c0-8.3,6.7-15,15-15h59.9c8.3,0,15,6.7,15,15V482z M241.1,482h29.9V361h-29.9V482z M322.8,272h152.4l-50.1-171
			H86.9L36.8,272h152.4l56-57c2.8-2.9,6.7-4.5,10.7-4.5c4,0,7.9,1.6,10.7,4.5L322.8,272z M331.1,71h30V30h-30V71z M406.1,452h-60
			c-8.3,0-15-6.7-15-15v-91c0-8.3,6.7-15,15-15h60c8.3,0,15,6.7,15,15v91C421.1,445.3,414.3,452,406.1,452z M361.1,422h30v-61h-30
			V422z M166,452h-60c-8.3,0-15-6.7-15-15v-91c0-8.3,6.7-15,15-15h60c8.3,0,15,6.7,15,15v91C181,445.3,174.3,452,166,452z M121,422
			h30v-61h-30V422z"/>
	</g>
</g>
</svg>
