<?xml version="1.0" encoding="utf-8"?>
<!-- Generator: Adobe Illustrator 27.6.1, SVG Export Plug-In . SVG Version: 6.00 Build 0)  -->
<svg version="1.1" id="Layer_1" xmlns="http://www.w3.org/2000/svg" xmlns:xlink="http://www.w3.org/1999/xlink" x="0px" y="0px"
	 viewBox="0 0 512 512" style="enable-background:new 0 0 512 512;" xml:space="preserve">
<style type="text/css">
	.st0{fill:#4E86FF;}
</style>
<g>
	<path class="st0" d="M511.9,147.4c0-0.1,0-0.1,0-0.2c-0.1-0.5-0.1-0.9-0.2-1.4c0-0.1,0-0.1-0.1-0.2c-0.1-0.4-0.2-0.9-0.3-1.3
		c0-0.1-0.1-0.2-0.1-0.3c-0.1-0.4-0.3-0.8-0.4-1.1c0,0,0-0.1,0-0.1L456,20.7C450.4,8.1,437.8,0,424,0H88C74.2,0,61.6,8.1,56,20.7
		l-54.7,122c-0.9,1.9-1.3,4-1.3,6.1v49c0,29.4,16.7,55,41,67.7V477c0,19.3,15.7,35,35,35h360c19.3,0,35-15.7,35-35V265.6
		c24.3-12.7,41-38.4,41-67.7V149C512,148.5,512,147.9,511.9,147.4z M88,30h58.9l-23.3,104H38.1L83.4,33C84.2,31.2,86,30,88,30z
		 M361.3,201.4c-1.4,23.7-21,42.6-45.1,42.6c-25,0-45.2-20.3-45.2-45.2V164h90.3L361.3,201.4z M241,30v104h-86.8l23.4-104H241z
		 M334.4,30l23.4,104H271V30H334.4z M150.7,201.4V164H241v34.8c0,25-20.3,45.2-45.2,45.2C171.7,244,152,225.1,150.7,201.4
		L150.7,201.4z M30,164h90.5v34.8c0,12.2-4.8,23.6-13.5,32.2c-8.7,8.6-20.2,13.2-32.4,13C50,243.7,30,223,30,197.9V164z M437.4,244
		c-12.2,0.1-23.7-4.5-32.4-13c-8.7-8.6-13.6-20-13.6-32.2V164H482v33.9C482,223,462,243.7,437.4,244z M388.5,134L365.2,30H424
		c2,0,3.8,1.2,4.6,3l45.2,101H388.5z M171,362h70v120h-70V362z M271,362h70v120h-70V362z M441,477c0,2.8-2.2,5-5,5h-65V362h5
		c8.3,0,15-6.7,15-15s-6.7-15-15-15H136c-8.3,0-15,6.7-15,15s6.7,15,15,15h5v120H76c-2.8,0-5-2.2-5-5V273.9c1.1,0.1,2.2,0.1,3.3,0.1
		c20.3,0.3,39.4-7.4,53.9-21.7c2.7-2.6,5.2-5.5,7.4-8.5c13.7,18.3,35.6,30.2,60.2,30.2c24.6,0,46.5-11.9,60.2-30.2
		c13.7,18.3,35.6,30.2,60.2,30.2c24.6,0,46.5-11.9,60.2-30.2c2.3,3,4.7,5.8,7.4,8.5c14.4,14.2,33.6,22,53.9,21.7
		c1.1,0,2.2-0.1,3.3-0.1L441,477L441,477z"/>
</g>
</svg>
