<?xml version="1.0" encoding="utf-8"?>
<!-- Generator: Adobe Illustrator 27.6.1, SVG Export Plug-In . SVG Version: 6.00 Build 0)  -->
<svg version="1.1" id="Layer_1" xmlns="http://www.w3.org/2000/svg" xmlns:xlink="http://www.w3.org/1999/xlink" x="0px" y="0px"
	 viewBox="0 0 512 512" style="enable-background:new 0 0 512 512;" xml:space="preserve">
<style type="text/css">
	.st0{fill:#4E86FF;}
</style>
<path class="st0" d="M497,241c-26.5,0-52.6,2-78.2,6v-30c17.5-6.2,30.1-22.9,30.1-42.6v-60.2c0-24.9-20.2-45.1-45.1-45.1
	s-45.1,20.2-45.1,45.1v60.2c0,19.6,12.6,36.4,30.1,42.6v35.7c-47.3,10.5-92.1,27.8-132.8,51.7c-14.6-8.5-29.7-16.3-45.2-23.1v-40.6
	c17.5-6.2,30.1-22.9,30.1-42.6V77.6c0-24.9-20.2-45.1-45.1-45.1s-45.1,20.2-45.1,45.1v120.5c0,19.6,12.6,36.4,30.1,42.6v28.6
	c-29-10.4-59.3-18-90.5-22.7v-38.4c17.5-6.2,30.1-22.9,30.1-42.6V45.1C120.4,20.2,100.1,0,75.2,0S30.1,20.2,30.1,45.1v120.5
	c0,19.6,12.6,36.4,30.1,42.6V243c-14.9-1.3-30-2-45.2-2c-8.3,0-15,6.7-15,15v241c0,8.3,6.7,15,15,15h324.1c0,0,0,0,0,0c0,0,0,0,0,0
	h64.7H497c8.3,0,15-6.7,15-15V256C512,247.7,505.3,241,497,241z M388.7,114.2c0-8.3,6.8-15.1,15.1-15.1s15.1,6.8,15.1,15.1v60.2
	c0,8.3-6.8,15.1-15.1,15.1s-15.1-6.8-15.1-15.1V114.2z M180.6,77.6c0-8.3,6.8-15.1,15.1-15.1s15.1,6.8,15.1,15.1v120.5
	c0,8.3-6.8,15.1-15.1,15.1s-15.1-6.8-15.1-15.1V77.6z M60.1,45.1c0-8.3,6.8-15.1,15.1-15.1s15.1,6.8,15.1,15.1v120.5
	c0,8.3-6.8,15.1-15.1,15.1s-15.1-6.8-15.1-15.1V45.1z M337.4,366.8c-0.7-0.7-1.4-1.4-2.2-2.1c9.4-4.2,19-8,28.8-11.5
	c37.4-13.1,77-20.5,117.9-21.9v30c-37.5,1.4-73.8,8.2-108,20.2c-5.7,2-11.4,4.2-17,6.5c-1.1-1.3-2.3-2.7-3.5-4
	c-0.5-0.5-1-1.1-1.5-1.6c-1.1-1.2-2.2-2.4-3.2-3.6c-0.6-0.6-1.1-1.2-1.7-1.8c-1.1-1.2-2.2-2.3-3.3-3.5c-0.5-0.5-1-1.1-1.6-1.6
	c-1.4-1.5-2.9-3-4.4-4.5C337.8,367.1,337.6,367,337.4,366.8z M393,438.4c-0.3-0.6-0.7-1.1-1-1.7c-0.7-1.2-1.5-2.5-2.2-3.7
	c-0.5-0.9-1.1-1.7-1.6-2.6c-0.7-1.2-1.5-2.4-2.2-3.5c-0.6-0.9-1.1-1.7-1.7-2.6c-0.8-1.2-1.5-2.3-2.3-3.4c-0.6-0.9-1.2-1.7-1.8-2.6
	c-0.8-1.1-1.6-2.3-2.4-3.4c-0.5-0.8-1.1-1.5-1.6-2.3c2.5-1,5.1-1.9,7.6-2.8c31-10.9,64-17.1,98.1-18.5v30
	c-30.7,1.4-60.3,7-88.1,16.8C393.6,438.2,393.3,438.3,393,438.4z M482,271.2v30c-44.3,1.5-87.3,9.4-127.9,23.6
	c-14.8,5.2-29.3,11.2-43,18c-0.6-0.5-1.2-1-1.8-1.5c-0.5-0.4-1.1-0.9-1.6-1.3c-1.3-1.1-2.6-2.1-4-3.2c-0.7-0.5-1.3-1.1-2-1.6
	c-1.3-1-2.5-2-3.8-2.9c-0.7-0.5-1.3-1-2-1.5c-1.5-1.1-3-2.2-4.5-3.4c-0.4-0.3-0.8-0.6-1.3-0.9c-1.8-1.3-3.6-2.6-5.4-3.9
	C343.7,291,411.2,273.4,482,271.2z M248.1,334.7c2,1.2,4,2.5,6,3.8c0.7,0.4,1.3,0.9,2,1.3c1.3,0.9,2.6,1.7,3.9,2.6
	c0.8,0.5,1.5,1,2.3,1.6c1.2,0.8,2.3,1.6,3.5,2.4c0.8,0.6,1.6,1.1,2.4,1.7c1.1,0.8,2.2,1.6,3.3,2.4c0.8,0.6,1.6,1.2,2.4,1.8
	c1.1,0.8,2.2,1.6,3.2,2.4c0.8,0.6,1.6,1.2,2.4,1.8c1.1,0.8,2.1,1.6,3.2,2.5c0.8,0.6,1.5,1.2,2.3,1.8c1.1,0.9,2.2,1.7,3.2,2.6
	c0.7,0.6,1.4,1.1,2.1,1.7c1.2,1,2.3,2,3.5,2.9c0.6,0.5,1.2,1,1.8,1.5c1.7,1.5,3.4,3,5.1,4.5c0.3,0.3,0.6,0.6,0.9,0.8
	c1.4,1.2,2.8,2.5,4.1,3.7c0.6,0.6,1.2,1.2,1.9,1.7c1,1,2.1,1.9,3.1,2.9c0.7,0.7,1.4,1.3,2,2c0.9,0.9,1.9,1.8,2.8,2.8
	c0.7,0.7,1.4,1.4,2.1,2.1c0.9,0.9,1.8,1.8,2.7,2.7c0.7,0.7,1.4,1.4,2.1,2.1c0.9,0.9,1.7,1.8,2.6,2.7c0.7,0.7,1.3,1.4,2,2.2
	c0.9,0.9,1.7,1.9,2.5,2.8c0.6,0.7,1.3,1.4,1.9,2.1c0.9,1,1.7,2,2.6,3c0.6,0.7,1.2,1.4,1.8,2.1c1,1.1,1.9,2.3,2.8,3.4
	c0.5,0.6,0.9,1.1,1.4,1.7c1.4,1.7,2.7,3.4,4,5.1c0.4,0.5,0.7,0.9,1,1.4c1,1.3,2,2.6,2.9,3.9c0.5,0.7,1,1.4,1.5,2.1
	c0.8,1.1,1.6,2.1,2.3,3.2c0.5,0.8,1.1,1.5,1.6,2.3c0.7,1,1.4,2.1,2.1,3.1c0.5,0.8,1.1,1.6,1.6,2.4c0.7,1,1.4,2,2,3.1
	c0.5,0.8,1,1.6,1.5,2.4c0.7,1,1.3,2.1,2,3.1c0.5,0.8,1,1.6,1.5,2.4c0.6,1.1,1.3,2.1,1.9,3.2c0.5,0.8,0.9,1.6,1.4,2.3
	c0.7,1.1,1.3,2.3,2,3.4c0.4,0.7,0.8,1.4,1.2,2.2c0.8,1.4,1.5,2.7,2.2,4.1c0.3,0.5,0.5,1,0.8,1.5c1,1.9,1.9,3.8,2.9,5.7
	c0.3,0.5,0.5,1,0.7,1.5c0.7,1.4,1.4,2.8,2,4.2c0.3,0.7,0.7,1.4,1,2.2c0.4,0.9,0.8,1.9,1.3,2.8h-33.2c-17.5-34.5-42.9-65.8-75.6-92.9
	c-33.1-27.5-71.8-49.1-115-64.2c-40.6-14.2-83.6-22.2-127.9-23.6v-30C109.3,273.7,184.4,295.5,248.1,334.7z M278.4,482
	c-12-16.8-26.7-32.5-43.9-46.7c-27.6-22.9-60.1-41-96.6-53.8c-34.2-12-70.5-18.8-108-20.2v-30c40.9,1.4,80.5,8.8,117.9,21.9
	c39.8,14,75.4,33.8,105.8,59c25.1,20.9,45.4,44.3,60.6,69.8H278.4z M196.9,482c-0.2-0.2-0.4-0.4-0.6-0.5
	c-22.1-18.3-48.4-32.9-78.1-43.4c-27.9-9.8-57.4-15.4-88.1-16.8v-30c34.1,1.4,67,7.6,98.1,18.5c33.1,11.6,62.5,28,87.3,48.6
	c9,7.5,17.2,15.4,24.6,23.6H196.9z M30,451.4c27.3,1.3,53.5,6.4,78.2,15c12.5,4.4,24.3,9.6,35.3,15.6H30V451.4z M414.2,482
	c-0.3-0.7-0.6-1.4-0.8-2.1c-0.4-0.9-0.7-1.8-1.1-2.8c-0.5-1.3-1.1-2.5-1.6-3.8c-0.4-0.9-0.8-1.8-1.2-2.7c-0.6-1.3-1.2-2.6-1.8-3.9
	c-0.2-0.5-0.4-1-0.7-1.4c23.7-8,48.9-12.6,74.9-13.9V482H414.2z"/>
</svg>
