<?xml version="1.0" encoding="utf-8"?>
<!-- Generator: Adobe Illustrator 27.6.1, SVG Export Plug-In . SVG Version: 6.00 Build 0)  -->
<svg version="1.1" id="Layer_1" xmlns="http://www.w3.org/2000/svg" xmlns:xlink="http://www.w3.org/1999/xlink" x="0px" y="0px"
	 viewBox="0 0 512 512" style="enable-background:new 0 0 512 512;" xml:space="preserve">
<style type="text/css">
	.st0{fill:#4E86FF;}
</style>
<g>
	<path class="st0" d="M216.2,72.6l0.1,22.4c0,4.8,2.3,9.3,6.2,12.1c3.9,2.8,8.9,3.6,13.5,2.1l20.2-6.7l19.7,6.7
		c1.6,0.5,3.2,0.8,4.8,0.8c3.1,0,6.1-0.9,8.7-2.8c3.9-2.8,6.3-7.3,6.3-12.1l0.2-22.9L308.3,54c2.6-3.8,3.3-8.7,1.9-13.1
		c-1.4-4.4-4.9-7.9-9.3-9.5l-20.2-7.1L268.3,6.4c-2.8-4-7.4-6.4-12.3-6.4c0,0,0,0,0,0c-4.9,0-9.5,2.4-12.3,6.4L231,24.5l-19.8,6.9
		c-4.4,1.5-7.9,5-9.3,9.4c-1.5,4.4-0.8,9.3,1.8,13.1L216.2,72.6z M245.3,51.3c3-1,5.5-3,7.4-5.5l3.2-4.6l2.9,4.2
		c1.8,2.6,4.4,4.5,7.3,5.6l6.3,2.2l-4,5.8c-1.7,2.5-2.6,5.4-2.6,8.4l-0.1,6.8l-4.8-1.6c-3.1-1-6.4-1-9.5,0l-5.3,1.8l0-6.3
		c0-3-0.9-5.9-2.6-8.4l-4.2-6.2L245.3,51.3z"/>
	<path class="st0" d="M497,200h-61v-30h8c8.3,0,15-6.7,15-15c0-8.3-6.7-15-15-15h-23c0,0,0,0,0,0H91c0,0,0,0,0,0H68
		c-8.3,0-15,6.7-15,15c0,8.3,6.7,15,15,15h8v30H15c-8.3,0-15,6.7-15,15v282c0,8.3,6.7,15,15,15h76h135c0,0,0,0,0,0h60c0,0,0,0,0,0
		h135h76c8.3,0,15-6.7,15-15V215C512,206.7,505.3,200,497,200z M30,230h46v252H30V230z M271,482h-30v-72h30V482z M301,482v-87
		c0-8.3-6.7-15-15-15h-60c-8.3,0-15,6.7-15,15v87H106V170h300v45c0,0,0,0,0,0s0,0,0,0v267H301z M482,482h-46V230h46V482z"/>
	<path class="st0" d="M342.2,72.6l0.1,22.4c0,4.8,2.3,9.3,6.2,12.1c3.9,2.8,8.9,3.6,13.5,2.1l20.2-6.7l19.7,6.7
		c1.6,0.5,3.2,0.8,4.8,0.8c3.1,0,6.1-0.9,8.7-2.8c3.9-2.8,6.3-7.3,6.3-12.1l0.2-22.9L434.3,54c2.6-3.8,3.3-8.7,1.9-13.1
		c-1.4-4.4-4.9-7.9-9.3-9.5l-20.2-7.1L394.3,6.4c-2.8-4-7.4-6.4-12.3-6.4c0,0,0,0,0,0c-4.9,0-9.5,2.4-12.3,6.4l-12.8,18.1l-19.8,6.9
		c-4.4,1.5-7.9,5-9.3,9.4c-1.5,4.4-0.8,9.3,1.8,13.1L342.2,72.6z M371.3,51.3c3-1,5.5-3,7.4-5.5l3.2-4.6l2.9,4.2
		c1.8,2.6,4.4,4.5,7.3,5.6l6.3,2.2l-4,5.8c-1.7,2.5-2.6,5.4-2.6,8.4l-0.1,6.8l-4.8-1.6c-3.1-1-6.4-1-9.5,0l-5.3,1.8l0-6.3
		c0-3-0.9-5.9-2.6-8.4l-4.2-6.2L371.3,51.3z"/>
	<path class="st0" d="M90.3,72.6L90.3,95c0,4.8,2.3,9.3,6.2,12.1c3.9,2.8,8.9,3.6,13.5,2.1l20.2-6.7l19.7,6.7
		c1.6,0.5,3.2,0.8,4.8,0.8c3.1,0,6.1-0.9,8.7-2.8c3.9-2.8,6.3-7.3,6.3-12.1l0.2-22.9L182.4,54c2.6-3.8,3.3-8.7,1.9-13.1
		c-1.4-4.4-4.9-7.9-9.3-9.5l-20.2-7.1L142.3,6.4c-2.8-4-7.4-6.4-12.3-6.4c0,0,0,0,0,0c-4.9,0-9.5,2.4-12.3,6.4L105,24.5l-19.8,6.9
		c-4.4,1.5-7.9,5-9.3,9.4c-1.5,4.4-0.8,9.3,1.8,13.1L90.3,72.6z M119.4,51.3c3-1,5.5-3,7.4-5.5l3.2-4.6l2.9,4.2
		c1.8,2.6,4.4,4.5,7.3,5.6l6.3,2.2l-4,5.8c-1.7,2.5-2.6,5.4-2.6,8.4l-0.1,6.8l-4.8-1.6c-3.1-1-6.4-1-9.5,0l-5.3,1.8l0-6.3
		c0-3-0.9-5.9-2.6-8.4l-4.2-6.2L119.4,51.3z"/>
	<path class="st0" d="M181,200h-30c-8.3,0-15,6.7-15,15c0,8.3,6.7,15,15,15h30c8.3,0,15-6.7,15-15C196,206.7,189.3,200,181,200z"/>
	<path class="st0" d="M271,200h-30c-8.3,0-15,6.7-15,15c0,8.3,6.7,15,15,15h30c8.3,0,15-6.7,15-15C286,206.7,279.3,200,271,200z"/>
	<path class="st0" d="M361,200h-30c-8.3,0-15,6.7-15,15c0,8.3,6.7,15,15,15h30c8.3,0,15-6.7,15-15C376,206.7,369.3,200,361,200z"/>
	<path class="st0" d="M181,260h-30c-8.3,0-15,6.7-15,15c0,8.3,6.7,15,15,15h30c8.3,0,15-6.7,15-15C196,266.7,189.3,260,181,260z"/>
	<path class="st0" d="M271,260h-30c-8.3,0-15,6.7-15,15c0,8.3,6.7,15,15,15h30c8.3,0,15-6.7,15-15C286,266.7,279.3,260,271,260z"/>
	<path class="st0" d="M361,260h-30c-8.3,0-15,6.7-15,15c0,8.3,6.7,15,15,15h30c8.3,0,15-6.7,15-15C376,266.7,369.3,260,361,260z"/>
	<path class="st0" d="M181,320h-30c-8.3,0-15,6.7-15,15c0,8.3,6.7,15,15,15h30c8.3,0,15-6.7,15-15C196,326.7,189.3,320,181,320z"/>
	<path class="st0" d="M271,320h-30c-8.3,0-15,6.7-15,15c0,8.3,6.7,15,15,15h30c8.3,0,15-6.7,15-15C286,326.7,279.3,320,271,320z"/>
	<path class="st0" d="M361,320h-30c-8.3,0-15,6.7-15,15c0,8.3,6.7,15,15,15h30c8.3,0,15-6.7,15-15C376,326.7,369.3,320,361,320z"/>
	<path class="st0" d="M361,380h-15c-8.3,0-15,6.7-15,15c0,8.3,6.7,15,15,15h15c8.3,0,15-6.7,15-15C376,386.7,369.3,380,361,380z"/>
	<path class="st0" d="M166,380h-15c-8.3,0-15,6.7-15,15c0,8.3,6.7,15,15,15h15c8.3,0,15-6.7,15-15C181,386.7,174.3,380,166,380z"/>
</g>
</svg>
