<?xml version="1.0" encoding="utf-8"?>
<!-- Generator: Adobe Illustrator 27.6.1, SVG Export Plug-In . SVG Version: 6.00 Build 0)  -->
<svg version="1.1" id="Layer_1" xmlns="http://www.w3.org/2000/svg" xmlns:xlink="http://www.w3.org/1999/xlink" x="0px" y="0px"
	 viewBox="0 0 512 512" style="enable-background:new 0 0 512 512;" xml:space="preserve">
<style type="text/css">
	.st0{fill:#2A334E;}
</style>
<g>
	<path class="st0" d="M497,512h-96.4c-1.6,0-3.2-0.3-4.8-0.8l-0.2-0.1H15c-8.3,0-15-6.7-15-15v-96.2c0-8.3,6.7-15,15-15h81.4v-81.2
		c0-5.2,2.6-9.8,6.6-12.5c2.5-1.7,5.4-2.6,8.5-2.6h81.3v-81.1c0-5.2,2.6-9.8,6.6-12.5c2.5-1.7,5.4-2.6,8.4-2.6h81.3v-81.1
		c0-5.2,2.6-9.8,6.6-12.5c2.5-1.7,5.4-2.6,8.5-2.6h81.4V15c0-8.3,6.7-15,15-15H497c8.3,0,15,6.7,15,15l0,482
		C512,505.3,505.3,512,497,512z M403.1,482H482l0-452h-66.4v81.2c0,8.3-6.7,15-15,15h-81.5v81.2c0,8.3-6.7,15-15,15h-81.4v81.2
		c0,8.3-6.7,15-15,15h-81.4v81.3c0,8.3-6.7,15-15,15H30v66.2h368c1.6,0,3.2,0.3,4.8,0.8L403.1,482z M191.3,32.4h-71.2
		c-8.3,0-15,6.7-15,15s6.7,15,15,15h34.9L37,180.3c-5.9,5.9-5.9,15.4,0,21.2c2.8,2.8,6.6,4.4,10.6,4.4c3.8,0,7.7-1.5,10.6-4.4
		L176.3,83.6v34.9c0,8.3,6.7,15,15,15s15-6.7,15-15V47.4C206.3,39.2,199.6,32.4,191.3,32.4z"/>
</g>
</svg>
