<?xml version="1.0" encoding="utf-8"?>
<!-- Generator: Adobe Illustrator 27.6.1, SVG Export Plug-In . SVG Version: 6.00 Build 0)  -->
<svg version="1.1" id="Layer_1" xmlns="http://www.w3.org/2000/svg" xmlns:xlink="http://www.w3.org/1999/xlink" x="0px" y="0px"
	 viewBox="0 0 512 512" style="enable-background:new 0 0 512 512;" xml:space="preserve">
<style type="text/css">
	.st0{fill:#2A334E;}
</style>
<g>
	<path class="st0" d="M480.6,493.4l-30-120c-1.7-6.7-7.7-11.4-14.6-11.4h-53.8l4.4-4.4c5.9-5.9,5.9-15.4,0-21.2
		c-5.9-5.9-15.4-5.9-21.2,0L339.8,362H172.2l-25.6-25.6c-5.9-5.9-15.4-5.9-21.2,0c-5.9,5.9-5.9,15.4,0,21.2l4.4,4.4H76
		c-6.9,0-12.9,4.7-14.6,11.4l-30,120c-1.1,4.5-0.1,9.2,2.7,12.9c2.8,3.6,7.2,5.8,11.8,5.8h420c4.6,0,9-2.1,11.8-5.8
		C480.7,502.6,481.7,497.8,480.6,493.4z M65.2,482l22.5-90h336.6l22.5,90H65.2z"/>
	<path class="st0" d="M256,332c91,0,165-67.7,165-151c0-27.9-8.5-55.2-24.6-78.8c-4.6-6.8-13.9-8.6-20.7-4l-21.4,14.3
		C332.9,50.1,267.6,4.7,264.5,2.6c-5.1-3.5-11.8-3.5-16.9,0c-3.1,2.1-68.5,47.5-89.8,109.8l-21.4-14.3c-6.8-4.6-16.1-2.8-20.7,4
		C99.5,125.8,91,153.1,91,181C91,264.3,165,332,256,332z M132.8,131.9l26,17.3c4.3,2.8,9.7,3.3,14.4,1.2c4.7-2.1,8-6.4,8.8-11.5
		c7.2-48,54.5-89.7,74.1-105.2c19.6,15.5,66.9,57.2,74.1,105.2c0.8,5.1,4.1,9.4,8.8,11.5c4.7,2.1,10.1,1.6,14.4-1.2l26-17.3
		C387,147.3,391,164,391,181c0,31.8-13.9,62-39,84.9c-25.6,23.3-59.7,36.1-96,36.1s-70.3-12.8-96-36.1c-25.2-22.9-39-53-39-84.9
		C121,164,125,147.3,132.8,131.9z"/>
	<path class="st0" d="M256,272c16,0,31.2-6.5,42.6-18.2C309.8,242.2,316,227,316,211c0-10.5-2.8-20.9-8-30c0,0,0,0,0,0l-39-67.5
		c-2.7-4.6-7.6-7.5-13-7.5s-10.3,2.9-13,7.5l-39,67.6c-5.2,9.1-8,19.4-8,29.9c0,16,6.2,31.2,17.4,42.8C224.8,265.5,240,272,256,272z
		 M230,196l26-45l26,45c2.6,4.6,4,9.7,4,15c0,16.8-13.7,31-30,31s-30-14.2-30-31C226,205.7,227.4,200.6,230,196z"/>
	<circle class="st0" cx="256" cy="437" r="15"/>
	<circle class="st0" cx="346" cy="437" r="15"/>
	<circle class="st0" cx="166" cy="437" r="15"/>
</g>
</svg>
