<?xml version="1.0" encoding="utf-8"?>
<!-- Generator: Adobe Illustrator 27.6.1, SVG Export Plug-In . SVG Version: 6.00 Build 0)  -->
<svg version="1.1" id="Layer_1" xmlns="http://www.w3.org/2000/svg" xmlns:xlink="http://www.w3.org/1999/xlink" x="0px" y="0px"
	 viewBox="0 0 512 512" style="enable-background:new 0 0 512 512;" xml:space="preserve">
<style type="text/css">
	.st0{fill:#2A334E;}
</style>
<g transform="matrix(1.33333 0 0 -1.33333 0 682.667)">
	<g>
		<path class="st0" d="M153.9,128c-68.3,0-123.8,55.6-123.8,123.8c0,28.6,10,56.5,28.1,78.6c17.9,21.8,42.8,36.9,70.2,42.6
			c6.1,1.3,12-2.6,13.3-8.7c1.3-6.1-2.6-12-8.7-13.3c-22.4-4.7-42.8-17.1-57.5-34.9c-14.8-18-23-40.9-23-64.3
			c0-55.9,45.5-101.3,101.3-101.3c43.1,0,81.5,27.3,95.7,68c2,5.9,8.5,9,14.3,6.9c5.9-2,9-8.5,6.9-14.3
			C253.6,161.4,206.6,128,153.9,128z"/>
	</g>
	<g>
		<path class="st0" d="M152.2,429.5c-22.7,0-41.2,18.5-41.2,41.2c0,22.7,18.5,41.2,41.2,41.2s41.2-18.5,41.2-41.2
			C193.4,448,174.9,429.5,152.2,429.5z M152.2,489.5c-10.3,0-18.7-8.4-18.7-18.7c0-10.3,8.4-18.7,18.7-18.7s18.7,8.4,18.7,18.7
			C170.9,481.1,162.5,489.5,152.2,489.5z"/>
	</g>
	<g>
		<path class="st0" d="M320.2,153c-8.6,0-17.3,3.3-23.9,9.9l-64.8,64.8h-85.8c-14.5,0-26.2,11.8-26.2,26.2v142.5
			c0,9.2,3.6,17.8,10.2,24.2c6.6,6.4,15.3,9.8,24.5,9.5c18.1-0.5,32.8-15.8,32.8-34.2v-10.2h68.4c18.6,0,33.7-15.1,33.7-33.7
			s-15.1-33.7-33.7-33.7H187v-23.1h67.8c3,0,5.8-1.2,8-3.3l81.3-81.3c0,0,0,0,0,0c13.2-13.2,13.2-34.6,0-47.7
			C337.5,156.3,328.8,153,320.2,153z M153.2,407.6c-3,0-5.7-1.1-7.8-3.2c-2.2-2.1-3.4-5-3.4-8.1V253.9c0-2.1,1.7-3.7,3.7-3.7h90.4
			c3,0,5.8-1.2,8-3.3l68.1-68.1c4.4-4.4,11.5-4.4,15.9,0c4.4,4.4,4.4,11.5,0,15.9l-78,78h-74.4c-6.2,0-11.2,5-11.2,11.2v45.6
			c0,6.2,5,11.2,11.2,11.2h79.7c6.2,0,11.2,5,11.2,11.2c0,6.2-5,11.2-11.2,11.2h-79.7c-6.2,0-11.2,5-11.2,11.2v21.5
			c0,6.3-4.9,11.5-10.9,11.7C153.5,407.6,153.4,407.6,153.2,407.6z"/>
	</g>
</g>
</svg>
