<?xml version="1.0" encoding="utf-8"?>
<!-- Generator: Adobe Illustrator 27.6.1, SVG Export Plug-In . SVG Version: 6.00 Build 0)  -->
<svg version="1.1" id="Layer_1" xmlns="http://www.w3.org/2000/svg" xmlns:xlink="http://www.w3.org/1999/xlink" x="0px" y="0px"
	 viewBox="0 0 512 512" style="enable-background:new 0 0 512 512;" xml:space="preserve">
<style type="text/css">
	.st0{fill:#2A334E;}
</style>
<g>
	<path class="st0" d="M501.7,458.5c-6.3-2.1-13.3-6.9-20.7-12.1c-12.7-8.8-27.1-18.7-44.2-18.7c-15.7,0-28.2,9.6-39.3,18.1
		c-7.6,5.9-15.5,11.9-21,11.9s-13.4-6-21-11.9c-11.1-8.5-23.6-18.1-39.3-18.1s-28.2,9.6-39.3,18.1c-7.6,5.9-15.5,11.9-21,11.9
		c-5.5,0-13.4-6-21-11.9c-11.1-8.5-23.6-18.1-39.3-18.1s-28.2,9.6-39.3,18.1c-7.6,5.9-15.5,11.9-21,11.9c-5.5,0-13.4-6-21-11.9
		c-11.1-8.5-23.6-18.1-39.3-18.1c-17.1,0-31.5,9.9-44.2,18.7c-7.4,5.1-14.5,10-20.7,12.1c-7.9,2.6-12.1,11.1-9.5,19
		c2.1,6.3,7.9,10.3,14.2,10.3c1.6,0,3.2-0.2,4.7-0.8c10.3-3.4,19.5-9.7,28.3-15.8c9.6-6.6,19.5-13.4,27.2-13.4c5.5,0,13.4,6,21,11.9
		c11.1,8.5,23.6,18.1,39.3,18.1c15.7,0,28.2-9.6,39.3-18.1c7.6-5.9,15.5-11.9,21-11.9s13.4,6,21,11.9c11.1,8.5,23.6,18.1,39.3,18.1
		s28.2-9.6,39.3-18.1c7.6-5.9,15.5-11.9,21-11.9s13.4,6,21,11.9c11.1,8.5,23.6,18.1,39.3,18.1c15.7,0,28.2-9.6,39.3-18.1
		c7.6-5.9,15.5-11.9,21-11.9c7.8,0,17.7,6.8,27.2,13.4c8.8,6.1,18,12.4,28.3,15.8c7.9,2.6,16.4-1.6,19-9.5
		C513.8,469.6,509.6,461.1,501.7,458.5z"/>
	<path class="st0" d="M128,354.5c-4.2-2.3-8.9-5.9-13.5-9.4c-11.1-8.5-23.6-18.1-39.3-18.1c-17.1,0-31.5,9.9-44.2,18.7
		c-7.4,5.1-14.5,10-20.7,12.1c-7.9,2.6-12.1,11.1-9.5,19C2.9,383,8.7,387,15,387c1.6,0,3.2-0.2,4.7-0.8c10.3-3.4,19.5-9.7,28.3-15.8
		c9.6-6.6,19.5-13.4,27.2-13.4c5.5,0,13.4,6,21,11.9c11.1,8.5,23.6,18.1,39.3,18.1c15.7,0,28.2-9.6,39.3-18.1
		c7.6-5.9,15.5-11.9,21-11.9s13.4,6,21,11.9c11.1,8.5,23.6,18.1,39.3,18.1s28.2-9.6,39.3-18.1c7.6-5.9,15.5-11.9,21-11.9
		s13.4,6,21,11.9c11.1,8.5,23.6,18.1,39.3,18.1c15.7,0,28.2-9.6,39.3-18.1c7.6-5.9,15.5-11.9,21-11.9c7.8,0,17.7,6.8,27.2,13.4
		c8.8,6.1,18,12.4,28.3,15.8c7.9,2.6,16.4-1.6,19-9.5c2.6-7.9-1.6-16.4-9.5-19c-6.3-2.1-13.3-6.9-20.7-12.1
		c-12.7-8.8-27.1-18.7-44.2-18.7c-15.7,0-28.2,9.6-39.3,18.1c-7.6,5.9-15.5,11.9-21,11.9s-13.4-6-21-11.9c-6.5-5-13.6-10.4-21.5-14
		V140h163c8.3,0,15-6.7,15-15s-6.7-15-15-15h-86V76.3c0-28.7-23.3-52-52-52h-3c-28.7,0-52,23.3-52,52V110h-69V76.3
		c0-28.7-23.3-52-52-52h-3c-28.7,0-52,23.3-52,52V110H15c-8.3,0-15,6.7-15,15s6.7,15,15,15h113V354.5z M304,278H158v-56h146V278z
		 M277,345.1c-7.6,5.9-15.5,11.9-21,11.9c-5.5,0-13.4-6-21-11.9c-11.1-8.5-23.6-18.1-39.3-18.1c-15,0-27.1,8.8-37.7,16.9V308h146v21
		C293.8,332.2,285,338.9,277,345.1z M334,76.3c0-12.1,9.9-22,22-22h3c12.1,0,22,9.9,22,22V110h-47V76.3z M158,76.3
		c0-12.1,9.9-22,22-22h3c12.1,0,22,9.9,22,22V110h-47V76.3z M304,140v52H158v-52H304z"/>
</g>
</svg>
