<?xml version="1.0" encoding="utf-8"?>
<!-- Generator: Adobe Illustrator 27.6.1, SVG Export Plug-In . SVG Version: 6.00 Build 0)  -->
<svg version="1.1" id="Layer_1" xmlns="http://www.w3.org/2000/svg" xmlns:xlink="http://www.w3.org/1999/xlink" x="0px" y="0px"
	 viewBox="0 0 512 512" style="enable-background:new 0 0 512 512;" xml:space="preserve">
<style type="text/css">
	.st0{fill:#2A334E;}
</style>
<g>
	<path class="st0" d="M367.8,449.9V288.6c0-19.6-12.5-36.2-30-42.4v-45.5c0-38.1-31-69.1-69.1-69.1H99.1c-38.1,0-69.1,31-69.1,69.1
		v45.5c-17.5,6.2-30,22.9-30,42.4v161.3c0,8.3,6.7,15,15,15h15V497c0,8.3,6.7,15,15,15s15-6.7,15-15v-32.1h15h217.8h15V497
		c0,8.3,6.7,15,15,15s15-6.7,15-15v-32.1h15C361.1,464.9,367.8,458.2,367.8,449.9z M99.1,161.5h169.5c21.6,0,39.1,17.6,39.1,39.1
		v45.5c-17.5,6.2-30,22.9-30,42.4V305c-31.4-14.9-62.9-22.5-93.9-22.5c-31,0-62.5,7.5-93.9,22.5v-16.4c0-19.6-12.5-36.2-30-42.4
		v-45.5C60,179.1,77.6,161.5,99.1,161.5z M277.8,374.9H90v-36.3c32-17.6,62.8-26.1,93.9-26.1c31.1,0,61.9,8.6,93.9,26.1V374.9z
		 M90,404.9h187.8v30H90V404.9z M30,288.6c0-8.3,6.7-15,15-15s15,6.7,15,15v146.3H30V288.6z M337.8,434.9h-30V288.6
		c0-8.3,6.7-15,15-15s15,6.7,15,15V434.9z"/>
	<path class="st0" d="M511.6,99l-20-87.4C490.1,4.8,484,0,477,0h-87.4c-7,0-13.1,4.8-14.6,11.7L355,99c-1,4.5,0,9.1,2.9,12.7
		s7.2,5.7,11.7,5.7h48.7V482h-40.4c-8.3,0-15,6.7-15,15s6.7,15,15,15h110.7c8.3,0,15-6.7,15-15s-6.7-15-15-15h-40.4V117.4H497
		c4.6,0,8.9-2.1,11.7-5.7S512.6,103.5,511.6,99z M388.5,87.4L401.6,30H465l13.1,57.4H388.5z"/>
</g>
</svg>
