<?xml version="1.0" encoding="utf-8"?>
<!-- Generator: Adobe Illustrator 27.6.1, SVG Export Plug-In . SVG Version: 6.00 Build 0)  -->
<svg version="1.1" id="Layer_1" xmlns="http://www.w3.org/2000/svg" xmlns:xlink="http://www.w3.org/1999/xlink" x="0px" y="0px"
	 viewBox="0 0 512 512" style="enable-background:new 0 0 512 512;" xml:space="preserve">
<style type="text/css">
	.st0{fill:#2A334E;}
</style>
<g>
	<g>
		<g transform="matrix(1.33333 0 0 -1.33333 0 682.667)">
			<g>
				<path class="st0" d="M300.5,128H83.6c-6.2,0-11.3,5-11.3,11.3v361.5c0,6.2,5,11.3,11.3,11.3h216.9c6.2,0,11.3-5,11.3-11.3V139.3
					C311.7,133,306.7,128,300.5,128z M94.8,150.5h194.4v339H94.8V150.5z"/>
			</g>
		</g>
	</g>
	<g>
		<g transform="matrix(1.33333 0 0 -1.33333 0 682.667)">
			<g>
				<path class="st0" d="M372.8,128H11.3C5,128,0,133,0,139.3s5,11.3,11.3,11.3h361.5c6.2,0,11.3-5,11.3-11.3S379,128,372.8,128z"/>
			</g>
		</g>
	</g>
	<g>
		<path class="st0" d="M400.6,287.1h-48.2c-8.3,0-15-6.7-15-15s6.7-15,15-15h48.2c8.3,0,15,6.7,15,15S408.9,287.1,400.6,287.1z"/>
	</g>
</g>
</svg>
