<?xml version="1.0" encoding="utf-8"?>
<!-- Generator: Adobe Illustrator 27.6.1, SVG Export Plug-In . SVG Version: 6.00 Build 0)  -->
<svg version="1.1" id="Layer_1" xmlns="http://www.w3.org/2000/svg" xmlns:xlink="http://www.w3.org/1999/xlink" x="0px" y="0px"
	 viewBox="0 0 512 512" style="enable-background:new 0 0 512 512;" xml:space="preserve">
<style type="text/css">
	.st0{fill:#2A334E;}
</style>
<g>
	<path class="st0" d="M464.5,232.4v-114c0-25.1-20.5-45.6-45.6-45.6H93.1c-25.1,0-45.6,20.5-45.6,45.6v114C20.1,240,0,265.1,0,294.8
		v86.6c0,8.4,6.8,15.2,15.2,15.2h32.3V424c0,8.4,6.8,15.2,15.2,15.2s15.2-6.8,15.2-15.2v-27.3h356.2V424c0,8.4,6.8,15.2,15.2,15.2
		s15.2-6.8,15.2-15.2v-27.3h32.3c8.4,0,15.2-6.8,15.2-15.2v-86.6C512,265.1,491.9,240,464.5,232.4L464.5,232.4z M77.9,118.4
		c0-8.4,6.8-15.2,15.2-15.2h325.8c8.4,0,15.2,6.8,15.2,15.2v111.7h-35.6v-30.5c0-26.5-21.6-48.1-48.1-48.1h-61.5
		c-12.7,0-24.3,5-32.9,13.1c-8.6-8.1-20.2-13.1-32.9-13.1h-61.5c-26.5,0-48.1,21.6-48.1,48.1v30.5H77.9V118.4z M368.1,199.5v30.5
		h-96.9v-30.5c0-9.8,7.9-17.7,17.7-17.7h61.5C360.1,181.8,368.1,189.8,368.1,199.5z M240.8,199.5v30.5h-96.9v-30.5
		c0-9.8,7.9-17.7,17.7-17.7h61.5C232.9,181.8,240.8,189.8,240.8,199.5z M481.6,366.2H30.4v-71.4c0-18.9,15.4-34.4,34.4-34.4h382.5
		c18.9,0,34.4,15.4,34.4,34.4L481.6,366.2L481.6,366.2z"/>
</g>
</svg>
