<?xml version="1.0" encoding="utf-8"?>
<!-- Generator: Adobe Illustrator 27.6.1, SVG Export Plug-In . SVG Version: 6.00 Build 0)  -->
<svg version="1.1" id="Layer_1" xmlns="http://www.w3.org/2000/svg" xmlns:xlink="http://www.w3.org/1999/xlink" x="0px" y="0px"
	 viewBox="0 0 512 512" style="enable-background:new 0 0 512 512;" xml:space="preserve">
<style type="text/css">
	.st0{fill:#2A334E;}
</style>
<g>
	<path class="st0" d="M17.8,154.7c9.8,0,17.8-8,17.8-17.8v-76l114.8,114.8c3.3,3.3,7.9,5.2,12.6,5.2c4.6,0,9.1-1.7,12.6-5.2
		c7-7,7-18.2,0-25.2c0,0,0,0,0,0L60.9,35.7h76c9.8,0,17.8-8,17.8-17.8S146.8,0,136.9,0H17.8C8,0,0,8,0,17.8v119.1
		C0,146.8,8,154.7,17.8,154.7z M494.2,357.3c-9.8,0-17.8,8-17.8,17.8l0,0v76L358,332.7c-7-6.9-18.3-6.9-25.2,0.1
		c-6.9,7-6.9,18.2,0,25.1l118.4,118.4h-76c-9.8,0-17.8,8-17.8,17.8s8,17.8,17.8,17.8h119.1c9.8,0,17.8-8,17.8-17.8V375.1
		C512,365.2,504,357.3,494.2,357.3L494.2,357.3z M154,332.7L35.7,451.1v-76c0-9.8-8-17.8-17.8-17.8S0,365.2,0,375.1v119.1
		C0,504,8,512,17.8,512h119.1c9.8,0,17.8-8,17.8-17.8c0-9.8-8-17.8-17.8-17.8h-76L179.3,358c7-6.9,7-18.2,0.1-25.2s-18.2-7-25.2-0.1
		C154.1,332.7,154.1,332.7,154,332.7z M494.2,0H375.1c-9.8,0-17.8,8-17.8,17.8s8,17.8,17.8,17.8h76L336.3,150.5c-7,7-7,18.3,0,25.2
		c3.3,3.3,7.9,5.2,12.6,5.2c4.7,0,9.3-1.9,12.6-5.2L476.3,60.9v76c0,9.8,8,17.8,17.8,17.8s17.8-8,17.8-17.8V17.8
		C512,8,504,0,494.2,0z"/>
</g>
</svg>
