<?xml version="1.0" encoding="utf-8"?>
<!-- Generator: Adobe Illustrator 27.6.1, SVG Export Plug-In . SVG Version: 6.00 Build 0)  -->
<svg version="1.1" id="Layer_1" xmlns="http://www.w3.org/2000/svg" xmlns:xlink="http://www.w3.org/1999/xlink" x="0px" y="0px"
	 viewBox="0 0 512 512" style="enable-background:new 0 0 512 512;" xml:space="preserve">
<style type="text/css">
	.st0{fill:#2A334E;}
</style>
<g>
	<path class="st0" d="M497,137h-26v-17c0-8.3-6.7-15-15-15s-15,6.7-15,15v17h-58V80c0-8.3-6.7-15-15-15h-33V15c0-8.3-6.7-15-15-15
		H192c-8.3,0-15,6.7-15,15v50h-33c-8.3,0-15,6.7-15,15v161H63v-17c0-8.3-6.7-15-15-15s-15,6.7-15,15v17H15c-8.3,0-15,6.7-15,15v241
		c0,8.3,6.7,15,15,15h209h64h209c8.3,0,15-6.7,15-15V152C512,143.7,505.3,137,497,137z M129,482H30V271h99V482z M207,30h98v35h-98
		V30z M239,482v-51h34v51H239z M353,482h-50v-51h1c8.3,0,15-6.7,15-15s-6.7-15-15-15h-96c-8.3,0-15,6.7-15,15s6.7,15,15,15h1v51h-50
		V95h194V482z M482,482h-99V167h99V482z"/>
	<path class="st0" d="M288,223h16c8.3,0,15-6.7,15-15s-6.7-15-15-15h-16c-8.3,0-15,6.7-15,15S279.7,223,288,223z"/>
	<path class="st0" d="M440,249h-16c-8.3,0-15,6.7-15,15s6.7,15,15,15h16c8.3,0,15-6.7,15-15S448.3,249,440,249z"/>
	<path class="st0" d="M288,159h16c8.3,0,15-6.7,15-15s-6.7-15-15-15h-16c-8.3,0-15,6.7-15,15S279.7,159,288,159z"/>
	<path class="st0" d="M440,305h-16c-8.3,0-15,6.7-15,15s6.7,15,15,15h16c8.3,0,15-6.7,15-15S448.3,305,440,305z"/>
	<path class="st0" d="M72,327h16c8.3,0,15-6.7,15-15s-6.7-15-15-15H72c-8.3,0-15,6.7-15,15S63.7,327,72,327z"/>
	<path class="st0" d="M72,383h16c8.3,0,15-6.7,15-15s-6.7-15-15-15H72c-8.3,0-15,6.7-15,15S63.7,383,72,383z"/>
	<path class="st0" d="M72,439h16c8.3,0,15-6.7,15-15s-6.7-15-15-15H72c-8.3,0-15,6.7-15,15S63.7,439,72,439z"/>
	<path class="st0" d="M208,159h16c8.3,0,15-6.7,15-15s-6.7-15-15-15h-16c-8.3,0-15,6.7-15,15S199.7,159,208,159z"/>
	<path class="st0" d="M208,287h16c8.3,0,15-6.7,15-15s-6.7-15-15-15h-16c-8.3,0-15,6.7-15,15S199.7,287,208,287z"/>
	<path class="st0" d="M208,351h16c8.3,0,15-6.7,15-15s-6.7-15-15-15h-16c-8.3,0-15,6.7-15,15S199.7,351,208,351z"/>
	<path class="st0" d="M440,193h-16c-8.3,0-15,6.7-15,15s6.7,15,15,15h16c8.3,0,15-6.7,15-15S448.3,193,440,193z"/>
	<path class="st0" d="M288,351h16c8.3,0,15-6.7,15-15s-6.7-15-15-15h-16c-8.3,0-15,6.7-15,15S279.7,351,288,351z"/>
	<path class="st0" d="M288,287h16c8.3,0,15-6.7,15-15s-6.7-15-15-15h-16c-8.3,0-15,6.7-15,15S279.7,287,288,287z"/>
	<path class="st0" d="M208,223h16c8.3,0,15-6.7,15-15s-6.7-15-15-15h-16c-8.3,0-15,6.7-15,15S199.7,223,208,223z"/>
	<path class="st0" d="M440,361h-16c-8.3,0-15,6.7-15,15s6.7,15,15,15h16c8.3,0,15-6.7,15-15S448.3,361,440,361z"/>
</g>
</svg>
