<?xml version="1.0" encoding="utf-8"?>
<!-- Generator: Adobe Illustrator 27.6.1, SVG Export Plug-In . SVG Version: 6.00 Build 0)  -->
<svg version="1.1" id="Layer_1" xmlns="http://www.w3.org/2000/svg" xmlns:xlink="http://www.w3.org/1999/xlink" x="0px" y="0px"
	 viewBox="0 0 512 512" style="enable-background:new 0 0 512 512;" xml:space="preserve">
<style type="text/css">
	.st0{fill:#2A334E;}
</style>
<path class="st0" d="M352.8,397.4c-6.9-6.9-18.2-6.9-25.2,0l-53.7,53.7V173.7c0-0.5,0-1.1-0.1-1.6V60.9l53.7,53.7
	c6.9,6.9,18.2,6.9,25.2,0c6.9-6.9,6.9-18.2,0-25.2L268.5,5.3c-6.9-7-18.2-7-25.1-0.1l-84.2,84.2c-6.9,6.9-6.9,18.2,0,25.2
	c6.9,6.9,18.2,6.9,25.2,0l53.7-53.7l0,112.8c0,0,0,0,0,0l0.1,277.4l-53.7-53.7c-6.9-6.9-18.2-6.9-25.2,0s-7.1,18.2-0.1,25.2
	l84.2,84.2c6.9,6.9,18.2,6.9,25.2,0l84.2-84.2C359.7,415.7,359.7,404.3,352.8,397.4z"/>
</svg>
