<?xml version="1.0" encoding="utf-8"?>
<!-- Generator: Adobe Illustrator 27.6.1, SVG Export Plug-In . SVG Version: 6.00 Build 0)  -->
<svg version="1.1" id="Layer_1" xmlns="http://www.w3.org/2000/svg" xmlns:xlink="http://www.w3.org/1999/xlink" x="0px" y="0px"
	 viewBox="0 0 512 512" style="enable-background:new 0 0 512 512;" xml:space="preserve">
<style type="text/css">
	.st0{fill:#2A334E;}
</style>
<g>
	<path class="st0" d="M487,0H25C11.2,0,0,11.2,0,25v100c0,13.8,11.2,25,25,25h21v272H25c-13.8,0-25,11.2-25,25v40
		c0,13.8,11.2,25,25,25h462c13.8,0,25-11.2,25-25v-40c0-13.8-11.2-25-25-25h-21V150h21c13.8,0,25-11.2,25-25V25
		C512,11.2,500.8,0,487,0z M30,30h452v30H30V30z M482,482H30v-30h452V482z M368.6,422h-51.8c14.9-19.6,19.7-45.2,13.1-68.3
		c-4-14.1-17-24.2-32.3-24.1c-4.4,0-7.8-0.8-9-2.3c-1.3-1.5-2.2-5.7-0.9-13.2c2.3-14-0.7-28.6-9.1-43.2
		c-15.5-27.1-56.6-18.7-60.3,12.4c-2.4,19.6-14.5,36.3-21.5,44.5c-10.5,12.3-16.7,27.6-17.5,43.2c-0.9,18.4,4.8,36.6,16,51.2h-51.8
		V210.3h225.2L368.6,422L368.6,422z M297.9,359.5C297.9,359.6,298,359.5,297.9,359.5c1.4,0,2.7,1,3.1,2.4
		c8,27.9-11.7,59.3-43.8,60.1c-40.1,0.9-62.5-45.7-37.7-74.9c9.2-10.8,25.1-32.9,28.4-60.3c0.2-1.6,1.3-2.3,2.7-2.3
		c1.1,0,1.6,0.7,1.8,1.2c4.9,8.5,6.7,16.4,5.6,23.4C252.6,341.7,270.6,359.9,297.9,359.5z M436,422h-37.4V205.3
		c0-13.8-11.2-25-25-25H138.4c-13.8,0-25,11.2-25,25V422H76V150h360V422z M482,120H30V90h452V120z"/>
</g>
</svg>
