<?xml version="1.0" encoding="utf-8"?>
<!-- Generator: Adobe Illustrator 27.6.1, SVG Export Plug-In . SVG Version: 6.00 Build 0)  -->
<svg version="1.1" id="Layer_1" xmlns="http://www.w3.org/2000/svg" xmlns:xlink="http://www.w3.org/1999/xlink" x="0px" y="0px"
	 viewBox="0 0 512 512" style="enable-background:new 0 0 512 512;" xml:space="preserve">
<style type="text/css">
	.st0{fill:#2A334E;}
</style>
<path class="st0" d="M446.3,334.8c-15.6-13.9-37.7-25.5-65.7-34.5c-4-1.3-8-2.5-12.1-3.6c10.7-4,20.1-9,28.2-15
	c22.2-16.5,33.9-40.2,33.9-68.5s-11.7-52-33.9-68.5c-10.3-7.6-22.7-13.6-37.1-17.9c4-2.5,7.5-5.3,10.7-8.4
	c12-11.6,18.1-26.7,18.1-44.7c0-19.1-10.2-45.1-58.7-60.6C294.1,1.7,250.8,0,228.2,0c-33.8,0-60.1,6.8-78.1,20.2
	c-17.4,12.9-26.6,31.4-26.6,53.6s9.2,40.7,26.6,53.6c1.3,1,2.6,1.9,4,2.8c-21.4,6.1-37.7,14.7-49.8,26.3c-15.3,14.8-23,33.9-23,56.9
	c0,36.9,29.5,58.7,59.6,71.2c-25,5.4-45.8,14.2-62.2,26.4c-27.3,20.2-41.7,49.3-41.7,84.1s14.4,63.9,41.7,84.1
	c29.3,21.8,72.7,32.8,129,32.8c56.8,0,121.3,0,172.1-13.2c63.1-16.4,95.1-51.3,95.1-103.7C474.9,372,465.3,351.7,446.3,334.8z
	 M228.2,30c62.7,0,130.2,13.7,130.2,43.7c0,13.5-4.4,28.4-37.1,36.9c-26.3,6.9-61.8,6.9-93.2,6.9c-61.7,0-74.7-23.8-74.7-43.7
	S166.5,30,228.2,30z M111.4,213.3c0-28.5,16.8-45.5,54.4-55.3c36.5-9.5,85.1-9.5,128-9.5c38.2,0,66.8,6.9,85,20.4
	c14.5,10.8,21.8,25.7,21.8,44.4s-7.3,33.6-21.8,44.4c-18.2,13.5-46.9,20.4-85,20.4c-49.5,0-94.7-5.7-127.2-16.1
	C130,250.2,111.4,233.9,111.4,213.3z M372.3,469.7C325.2,482,262.8,482,207.8,482c-49.7,0-87.1-9.1-111.1-26.9
	c-19.6-14.6-29.6-34.8-29.6-60c0-25.3,9.9-45.5,29.6-60c24-17.9,61.4-26.9,111.1-26.9c63.7,0,121.8,7.4,163.7,20.8
	c48.7,15.6,73.4,37.8,73.4,66.1C444.9,419,437.4,452.8,372.3,469.7z"/>
</svg>
