<?xml version="1.0" encoding="utf-8"?>
<!-- Generator: Adobe Illustrator 27.6.1, SVG Export Plug-In . SVG Version: 6.00 Build 0)  -->
<svg version="1.1" id="Layer_1" xmlns="http://www.w3.org/2000/svg" xmlns:xlink="http://www.w3.org/1999/xlink" x="0px" y="0px"
	 viewBox="0 0 512 512" style="enable-background:new 0 0 512 512;" xml:space="preserve">
<style type="text/css">
	.st0{fill:#2A334E;}
</style>
<g>
	<path class="st0" d="M423.9,144.1H218l0.1-36.5c0-9.5,5.1-19.7,13.5-19.7h188.7c8.3,0,15.1-6.8,15.1-15.1
		c0-40.1-32.6-72.8-72.6-72.8H136.8C84.3,0,45.2,45.7,45.2,97.9c-0.4,78.4,1.1,17.1-8.3,312.4C15.6,416.5,0,436.2,0,459.5v36.3
		c0,8.3,6.7,15.1,15.1,15.1h240.2c8.3,0,15.1-6.8,15.1-15.1v-36.3c0-23.3-15.7-43.1-37-49.2l-4.2-120.6c-0.3-9.9,7.6-18.2,17.5-18.2
		h120.1v42.6c0,8.3,6.7,15.1,15.1,15.1h82.5c8.3,0,15.1-6.8,15.1-15.1v-42.6h17.6c8.3,0,15.1-6.8,15.1-15.1v-24.1
		C512,183.7,472.5,144.1,423.9,144.1L423.9,144.1z M136.8,30.2h225.9c18.1,0,33.7,11.4,39.8,27.5H231.6c-27.3,0-43.6,25.4-43.6,49.8
		l-0.1,36.6H75.1L75.3,98C75.3,60.6,102.9,30.2,136.8,30.2L136.8,30.2z M240.2,459.5v21.2h-210v-21.2c0-11.6,9.4-21,21-21h168
		C230.7,438.5,240.2,447.9,240.2,459.5z M449.2,299h-52.4v-27.5h52.4V299z M481.9,241.4H246.6c-27,0-48.6,22.4-47.6,49.4l4.1,117.5
		H67.1l7.4-234h349.3c32,0,58,26,58,58.1V241.4z"/>
	<path class="st0" d="M435.1,374.4c-6-8-18-8-24.1,0c-13.6,18.1-42.4,60-42.4,83.1c0,30.1,24.4,54.5,54.4,54.5s54.4-24.4,54.4-54.5
		C477.5,434.4,448.5,392.3,435.1,374.4L435.1,374.4z M423.1,481.8c-13.4,0-24.3-10.9-24.3-24.3c0-7.7,11.1-28.2,24.3-47.9
		c13.1,19.7,24.3,40.2,24.3,47.9C447.3,470.9,436.4,481.8,423.1,481.8z"/>
</g>
</svg>
