<?xml version="1.0" encoding="utf-8"?>
<!-- Generator: Adobe Illustrator 27.6.1, SVG Export Plug-In . SVG Version: 6.00 Build 0)  -->
<svg version="1.1" id="Layer_1" xmlns="http://www.w3.org/2000/svg" xmlns:xlink="http://www.w3.org/1999/xlink" x="0px" y="0px"
	 viewBox="0 0 512 512" style="enable-background:new 0 0 512 512;" xml:space="preserve">
<style type="text/css">
	.st0{fill:#2A334E;}
</style>
<g transform="matrix(1.33333 0 0 -1.33333 0 682.667)">
	<g>
		<path class="st0" d="M192,128c-10.6,0-21.2,4-29.2,12.1l-88.3,88.3c-31.4,31.4-48.7,73.1-48.7,117.5S43.1,432,74.5,463.3
			C105.9,494.7,147.6,512,192,512c44.4,0,86.1-17.3,117.5-48.7c0,0,0,0,0,0c31.4-31.4,48.7-73.1,48.7-117.5
			c0-44.4-17.3-86.1-48.7-117.5l-88.3-88.3C213.2,132,202.6,128,192,128z M192,489.4c-36.8,0-73.6-14-101.6-42
			c-27.1-27.1-42.1-63.2-42.1-101.6c0-38.4,14.9-74.4,42.1-101.6l88.3-88.3c7.3-7.3,19.3-7.3,26.6,0l88.3,88.3
			c56,56,56,147.1,0,203.2C265.6,475.4,228.8,489.4,192,489.4z"/>
	</g>
	<g>
		<path class="st0" d="M192,286.4c-32.8,0-59.4,26.7-59.4,59.4s26.7,59.4,59.4,59.4c32.8,0,59.4-26.7,59.4-59.4
			S224.8,286.4,192,286.4z M192,382.8c-20.4,0-36.9-16.6-36.9-36.9c0-20.4,16.6-36.9,36.9-36.9c20.4,0,36.9,16.6,36.9,36.9
			C228.9,366.2,212.4,382.8,192,382.8z"/>
	</g>
</g>
</svg>
