<?xml version="1.0" encoding="utf-8"?>
<!-- Generator: Adobe Illustrator 27.6.1, SVG Export Plug-In . SVG Version: 6.00 Build 0)  -->
<svg version="1.1" id="Layer_1" xmlns="http://www.w3.org/2000/svg" xmlns:xlink="http://www.w3.org/1999/xlink" x="0px" y="0px"
	 viewBox="0 0 512 512" style="enable-background:new 0 0 512 512;" xml:space="preserve">
<style type="text/css">
	.st0{fill:#2A334E;}
</style>
<g>
	<path class="st0" d="M507.6,245.4l-241-241c-5.9-5.9-15.4-5.9-21.2,0l-241,241c-4.3,4.3-5.6,10.7-3.3,16.3
		c2.3,5.6,7.8,9.3,13.9,9.3h49.3v226c0,8.3,6.7,15,15,15h353.5c8.3,0,15-6.7,15-15V271H497c6.1,0,11.5-3.7,13.9-9.3
		C513.2,256.1,511.9,249.7,507.6,245.4z M432.7,241c-8.3,0-15,6.7-15,15v226H94.3V256c0-8.3-6.7-15-15-15H51.2L256,36.2L460.8,241
		H432.7z"/>
</g>
</svg>
