<?xml version="1.0" encoding="utf-8"?>
<!-- Generator: Adobe Illustrator 27.6.1, SVG Export Plug-In . SVG Version: 6.00 Build 0)  -->
<svg version="1.1" id="Layer_1" xmlns="http://www.w3.org/2000/svg" xmlns:xlink="http://www.w3.org/1999/xlink" x="0px" y="0px"
	 viewBox="0 0 512 512" style="enable-background:new 0 0 512 512;" xml:space="preserve">
<style type="text/css">
	.st0{fill:#2A334E;}
</style>
<g>
	<circle class="st0" cx="195" cy="151" r="15"/>
	<circle class="st0" cx="195" cy="241" r="15"/>
	<circle class="st0" cx="317" cy="151" r="15"/>
	<circle class="st0" cx="317" cy="241" r="15"/>
	<path class="st0" d="M452,166.7V121c0-41.4-33.6-75-75-75H135c-41.4,0-75,33.6-75,75v45.7c-33.8,4.7-60,33.8-60,68.9
		c0,4.6,0.5,9.2,1.4,13.6l20.2,100.8C28,382.5,56.7,406,89.8,406H90v45c0,8.3,6.7,15,15,15s15-6.7,15-15v-45h15h242h15v45
		c0,8.3,6.7,15,15,15s15-6.7,15-15v-45h0.2c33.1,0,61.8-23.5,68.2-55.9l20.2-100.8c0.9-4.5,1.4-9.1,1.4-13.6
		C512,200.5,485.8,171.4,452,166.7z M135,76h242c24.8,0,45,20.2,45,45v45.7c-33.8,4.7-60,33.8-60,68.9V286H150v-50.4
		c0-35.1-26.2-64.2-60-68.9V121C90,96.2,110.2,76,135,76z M135,376c-8.3,0-15-6.7-15-15v-30c0-8.3,6.7-15,15-15h242
		c8.3,0,15,6.7,15,15v30c0,8.3-6.7,15-15,15H135z M50.9,344.2L30.8,243.4c-0.5-2.6-0.8-5.2-0.8-7.8c0-21.8,17.8-39.6,39.6-39.6h10.8
		c21.8,0,39.6,17.8,39.6,39.6v53c-17.5,6.2-30,22.9-30,42.4v30c0,5.3,0.9,10.3,2.6,15h-2.8C70.9,376,54.6,362.6,50.9,344.2z
		 M481.2,243.4l-20.2,100.8c-3.7,18.4-20,31.8-38.8,31.8h-2.8c1.7-4.7,2.6-9.7,2.6-15v-30c0-19.6-12.5-36.2-30-42.4v-53
		c0-21.8,17.8-39.6,39.6-39.6h10.8c21.8,0,39.6,17.8,39.6,39.6C482,238.2,481.7,240.8,481.2,243.4z"/>
</g>
</svg>
