<?xml version="1.0" encoding="utf-8"?>
<!-- Generator: Adobe Illustrator 27.6.1, SVG Export Plug-In . SVG Version: 6.00 Build 0)  -->
<svg version="1.1" id="Layer_1" xmlns="http://www.w3.org/2000/svg" xmlns:xlink="http://www.w3.org/1999/xlink" x="0px" y="0px"
	 viewBox="0 0 512 512" style="enable-background:new 0 0 512 512;" xml:space="preserve">
<style type="text/css">
	.st0{fill:#2A334E;}
</style>
<g>
	<path class="st0" d="M497,0H15c0,0,0,0-0.1,0C6.7,0,0,6.7,0,15v482c0,8.3,6.7,15,15,15h482c8.3,0,15-6.7,15-15c0,0,0,0,0,0V15
		C512,6.7,505.3,0,497,0z M361.5,150.5V241H156.9v-36.8c0-18-2.2-35.7-6.4-52.9v-0.8H361.5z M482,150.5V241h-90.5v-90.5H482z
		 M241,271v53.3h-23.6c-31-0.1-56.5-23.5-60-53.3H241z M271,271h211v90.5h-91.5c-36.7-20.7-77.5-33.1-119.5-36.3V271z M482,391.5
		v51.1c-13.9-18.9-30-36-48-51.1H482z M482,120.5H271V30h211V120.5z M241,120.5H140.4c-5.6-13.5-12.5-26.4-20.7-38.6
		C106.3,61.9,89.8,44.4,71,30h170V120.5z M30,482V38.8c25.9,14.5,48.1,34.9,64.8,59.8c21,31.3,32.1,67.8,32.1,105.6V264
		c0,49.5,40.5,90,90.4,90.3h31.1c49.4,0,97.5,14,139.2,40.4c34.8,22.1,63.7,52,84.5,87.3L30,482L30,482z"/>
</g>
</svg>
