<?xml version="1.0" encoding="utf-8"?>
<!-- Generator: Adobe Illustrator 27.6.1, SVG Export Plug-In . SVG Version: 6.00 Build 0)  -->
<svg version="1.1" id="Layer_1" xmlns="http://www.w3.org/2000/svg" xmlns:xlink="http://www.w3.org/1999/xlink" x="0px" y="0px"
	 viewBox="0 0 512 512" style="enable-background:new 0 0 512 512;" xml:space="preserve">
<style type="text/css">
	.st0{fill:#2A334E;}
</style>
<g>
	<g>
		<g transform="matrix(1.33333 0 0 -1.33333 0 682.667)">
			<g>
				<path class="st0" d="M276.4,128c-37.3,0-73.5,7.3-107.6,21.7c-32.9,13.9-62.5,33.8-87.8,59.2c-25.4,25.4-45.3,54.9-59.2,87.8
					C7.3,330.9,0,367,0,404.4c0,28.8,11.2,55.8,31.5,76.1c20.3,20.3,47.4,31.5,76.1,31.5c4.6,0,8.7-2.8,10.4-7.1l48.2-120.5
					c1.1-2.8,1.1-5.9-0.1-8.6c-1.2-2.7-3.4-4.9-6.2-6l-52.9-21.2c3.7-60.9,52.6-109.8,113.5-113.5l21.2,52.9c1.1,2.8,3.3,5,6,6.2
					c2.7,1.2,5.8,1.2,8.6,0.1l120.5-48.2c4.3-1.7,7.1-5.8,7.1-10.4c0-28.8-11.2-55.8-31.5-76.1C332.1,139.2,305.1,128,276.4,128z
					 M100.2,489.2c-19.9-1.7-38.4-10.3-52.7-24.6c-16.1-16.1-24.9-37.5-24.9-60.2c0-67.8,26.4-131.6,74.4-179.5
					c47.9-47.9,111.7-74.4,179.5-74.4c22.7,0,44.1,8.9,60.2,24.9c14.3,14.3,22.9,32.8,24.6,52.7l-102.7,41.1l-19.9-49.8
					c-1.7-4.3-5.8-7.1-10.4-7.1c-79.3,0-143.8,64.5-143.8,143.8c0,4.6,2.8,8.7,7.1,10.5l49.8,19.9L100.2,489.2z"/>
			</g>
		</g>
	</g>
</g>
</svg>
