<?xml version="1.0" encoding="utf-8"?>
<!-- Generator: Adobe Illustrator 25.2.1, SVG Export Plug-In . SVG Version: 6.00 Build 0)  -->
<svg version="1.1" id="Layer_1" xmlns="http://www.w3.org/2000/svg" xmlns:xlink="http://www.w3.org/1999/xlink" x="0px" y="0px"
	 viewBox="0 0 300 62" style="enable-background:new 0 0 300 62;" xml:space="preserve">
<style type="text/css">
	.st0{fill:#4E86FF;}
</style>
<g>
	<path d="M0,0h13.4v35.5l13.2-17.8h16.5L25,39.6L43.4,62H26.7L13.4,43v19H0V0z"/>
	<path d="M68.4,62c-12.9,0-22.6-8.6-22.6-22.5s10-22.5,22.7-22.5c12.9,0,22.7,8.6,22.7,22.5S81.2,62,68.4,62z M68.4,50.4
		c4.8,0,9.3-3.5,9.3-10.9c0-7.4-4.4-10.9-9.1-10.9c-4.9,0-9.1,3.4-9.1,10.9C59.4,46.9,63.5,50.4,68.4,50.4z"/>
	<path d="M125.3,17.1c10.8,0,19.3,8.6,19.3,22.4c0,13.8-8.5,22.6-19.3,22.6c-6.4,0-11.1-2.9-13.5-6.7V62H98.4V0h13.4v23.9
		C114.2,19.9,119,17.1,125.3,17.1z M121.3,28.7c-5,0-9.6,3.8-9.6,10.8c0,7,4.5,10.8,9.6,10.8c5.1,0,9.6-3.9,9.6-10.9
		C130.9,32.5,126.4,28.7,121.3,28.7z"/>
	<path d="M171,62c-12.9,0-22.1-8.6-22.1-22.5S158,17.1,171,17.1c12.8,0,21.8,8.5,21.8,21.8c0,1.3-0.1,2.6-0.2,3.9h-30.3
		c0.5,5.7,4,8.4,8.3,8.4c3.8,0,5.9-1.9,7-4.2h14.3C189.7,55.4,181.9,62,171,62z M162.3,35.3h16.8c0-4.8-3.8-7.5-8.2-7.5
		C166.5,27.8,163.1,30.4,162.3,35.3z"/>
	<path class="st0" d="M219.8,62c-12.9,0-22.6-8.6-22.6-22.5s10-22.5,22.7-22.5c12.9,0,22.7,8.6,22.7,22.5S232.7,62,219.8,62z
		 M219.8,50.4c4.8,0,9.3-3.5,9.3-10.9c0-7.4-4.4-10.9-9.1-10.9c-4.9,0-9.1,3.4-9.1,10.9C210.9,46.9,214.9,50.4,219.8,50.4z"/>
	<path class="st0" d="M251.2,28.8h-4.9V17.7h4.9v-1.3c0-11.4,7.1-17.1,20.4-16.4v11.4c-5.2-0.3-7,1.3-7,5.9v0.4h7.2v11.1h-7.2V62
		h-13.4V28.8z"/>
	<path class="st0" d="M279.4,28.8h-4.9V17.7h4.9v-1.3c0-11.4,7.3-17.1,20.6-16.4v11.4c-5.2-0.3-7.2,1.3-7.2,5.9v0.4h7.2v11.1h-7.2
		V62h-13.4V28.8z"/>
</g>
</svg>
